<svg width="186" height="24" viewBox="0 0 186 24" fill="none" xmlns="http://www.w3.org/2000/svg">
<path d="M8.31065 0.402634L0 23.4752H5.30217L6.72724 19.0733H15.1012L16.558 23.4752H22.1406L13.7983 0.402634H8.31065ZM7.97135 15.2912L9.39642 10.9798C10.1384 8.71781 10.9482 4.83619 10.9482 4.83619H11.007C11.007 4.83619 11.5046 7.813 12.4954 10.9798L13.8888 15.2912H7.97135Z" fill="black"/>
<path d="M38.6081 9.74024C38.6081 12.3778 38.8841 16.4991 38.8841 16.4991H38.8253C38.8253 16.4991 37.0247 12.7487 35.6584 10.4188L29.5827 0.402634H24.1855V23.4752H29.2388V14.2055C29.2388 11.568 28.9629 7.41036 28.9629 7.41036H29.0217C29.0217 7.41036 30.8222 11.2558 32.2156 13.5811L38.2326 23.4752H43.6615V0.402634H38.6081V9.74024Z" fill="black"/>
<path d="M53.9581 0.402634L45.6475 23.4752H50.9497L52.3747 19.0733H60.7487L62.2055 23.4752H67.7881L59.4458 0.402634H53.9581ZM53.6143 15.2912L55.0394 10.9798C55.7858 8.71781 56.5911 4.83619 56.5911 4.83619H56.6545C56.6545 4.83619 57.1521 7.813 58.1429 10.9798L59.5363 15.2912H53.6143Z" fill="black"/>
<path d="M80.1025 15.0741H84.7578V15.1691C84.7261 17.4944 82.7717 19.6976 79.5144 19.6976C75.7323 19.6976 73.3753 16.472 73.3753 12.0339C73.3753 7.69538 75.3614 4.37474 79.4511 4.37474C82.0886 4.37474 83.5453 5.79981 84.1018 7.50537H89.3768C88.5399 3.10349 85.1287 0 79.2973 0C76.2571 0 73.8684 0.900283 72.009 2.47917C69.4349 4.65071 68.0098 8.0935 68.0098 12.0294C68.0098 15.5627 69.0639 18.6073 71.0816 20.7744C72.9727 22.7921 75.6418 24 78.9263 24C81.7493 24 84.1968 22.9142 85.563 20.3717H85.6581L86.0924 23.4752H89.7523V11.1336H80.1071V15.0741H80.1025Z" fill="black"/>
<path d="M111.839 7.90801C111.839 5.67313 111.033 3.90876 109.64 2.5425C108.247 1.11743 106.197 0.402634 103.438 0.402634H92.987V23.4752H98.3525V15.1012H102.198L106.912 23.4752H112.866L107.468 14.3864C110.165 13.3052 111.839 10.9798 111.839 7.90801ZM103.094 10.9165H98.348V4.89952H103.094C105.265 4.89952 106.536 5.92648 106.536 7.90801C106.536 9.86239 105.297 10.9165 103.094 10.9165Z" fill="black"/>
<path d="M122.719 0.402634L114.408 23.4752H119.71L121.136 19.0733H129.51L130.966 23.4752H136.549L128.207 0.402634H122.719ZM122.38 15.2912L123.805 10.9798C124.551 8.71781 125.356 4.83619 125.356 4.83619H125.42C125.42 4.83619 125.917 7.813 126.908 10.9798L128.302 15.2912H122.38Z" fill="black"/>
<path d="M151.795 10.0162C150.958 12.9025 150.089 18.2319 150.089 18.2319H149.994C149.994 18.2319 149.094 12.898 148.257 10.0162L145.371 0.402634H138.268V23.4752H143.014V13.1514C143.014 10.2379 142.643 4.84071 142.643 4.84071H142.702C142.702 4.84071 143.697 9.77191 144.502 12.5044L147.823 23.4797H152.166L155.45 12.5044C156.256 9.77191 157.251 4.84071 157.251 4.84071H157.314C157.314 4.84071 156.943 10.2379 156.943 13.1514V23.4797H161.811V0.407159H154.618L151.795 10.0162Z" fill="black"/>
<path d="M177.609 0.402634H172.117L163.806 23.4752H169.108L170.538 19.0733H178.912L180.369 23.4752H185.951L177.609 0.402634ZM171.778 15.2912L173.203 10.9798C173.949 8.71781 174.754 4.83619 174.754 4.83619H174.818C174.818 4.83619 175.311 7.813 176.306 10.9798L177.7 15.2912H171.778Z" fill="black"/>
</svg>
